<svg width="54" height="108" viewBox="0 0 54 108" fill="none" xmlns="http://www.w3.org/2000/svg">
<path d="M3.91992 30.934V99.5823C3.91992 104.224 7.70295 108 12.3535 108H40.6468C45.2973 108 49.0803 104.224 49.0803 99.5823V30.934C49.0803 30.6143 48.9669 30.3058 48.7606 30.0619L36.2859 15.3249C37.6375 14.8176 38.6066 13.5227 38.6066 11.9958V3.56616C38.6066 1.59983 37.0074 0 35.0411 0H17.9591C15.9928 0 14.3936 1.59983 14.3936 3.56616V11.9958C14.3936 13.5227 15.3627 14.8176 16.7144 15.3249L4.23962 30.0619C4.0333 30.3058 3.91992 30.6143 3.91992 30.934ZM17.0936 3.56616C17.0936 3.08826 17.4819 2.7 17.9591 2.7H35.0411C35.5184 2.7 35.9066 3.08826 35.9066 3.56616V11.9958C35.9066 12.473 35.5184 12.8613 35.0411 12.8613H17.9591C17.4819 12.8613 17.0936 12.473 17.0936 11.9958V3.56616ZM6.61992 31.4284L20.0513 15.5613H32.949L46.3803 31.4284V99.5823C46.3803 102.735 43.8082 105.3 40.6468 105.3H12.3535C9.19204 105.3 6.61992 102.735 6.61992 99.5823V31.4284Z" fill="black"/>
<path d="M30.1859 72.1297C33.7747 72.1297 36.6839 69.2205 36.6839 65.6317C36.6839 62.043 33.7747 59.1338 30.1859 59.1338C26.5972 59.1338 23.688 62.043 23.688 65.6317C23.688 69.2205 26.5972 72.1297 30.1859 72.1297Z" fill="#FCC16D"/>
<path d="M36.684 65.6316C36.684 69.2196 33.7742 72.1295 30.1862 72.1295C29.7242 72.1295 29.2739 72.081 28.8394 71.9892C31.3326 70.9567 33.0855 68.4972 33.0855 65.6306C33.0855 62.7661 31.3347 60.3087 28.8425 59.273C29.276 59.1812 29.7253 59.1338 30.1862 59.1338C33.7742 59.1337 36.684 62.0426 36.684 65.6316Z" fill="#FCA62F"/>
<path d="M33.061 60.357L44.4124 64.4885C47.8126 65.7261 51.5723 63.9729 52.8098 60.5728C54.0474 57.1726 52.2942 53.4129 48.894 52.1753L37.5426 48.0438C36.8412 47.7885 36.0657 48.1501 35.8105 48.8514L32.2533 58.6249C31.9979 59.3262 32.3596 60.1017 33.061 60.357Z" fill="#FCC16D"/>
<path d="M52.8092 60.5723C51.5714 63.9731 47.8126 65.7258 44.4118 64.4881L39.3296 62.6383C42.7291 63.8756 46.4891 62.1234 47.7269 58.7225C48.3454 57.0233 48.2159 55.2332 47.5081 53.7129C46.7997 52.1939 45.5116 50.9441 43.8111 50.3252L48.8934 52.175C50.5938 52.7939 51.882 54.0437 52.5903 55.5627C53.2982 57.083 53.4276 58.8731 52.8092 60.5723Z" fill="#FCA62F"/>
<path d="M20.9353 60.271L9.58385 64.4026C6.18369 65.6402 2.42399 63.887 1.18644 60.4868C-0.0511146 57.0867 1.70207 53.327 5.10223 52.0894L16.4537 47.9578C17.155 47.7026 17.9305 48.0641 18.1858 48.7655L21.743 58.5389C21.9982 59.2403 21.6367 60.0158 20.9353 60.271Z" fill="#C5D3DD"/>
<path d="M18.1861 48.7654L21.7433 58.5386C21.9984 59.2396 21.6366 60.0156 20.9356 60.2707L15.8522 62.1209C16.5532 61.8658 16.915 61.0898 16.6599 60.3889L13.1027 50.6156C12.8476 49.9146 12.0715 49.5528 11.3706 49.808L16.454 47.9577C17.155 47.7026 17.9309 48.0645 18.1861 48.7654Z" fill="#A0ACB9"/>
<path d="M20.7108 65.0955C24.2996 65.0955 27.2088 62.1863 27.2088 58.5976C27.2088 55.0088 24.2996 52.0996 20.7108 52.0996C17.1221 52.0996 14.2129 55.0088 14.2129 58.5976C14.2129 62.1863 17.1221 65.0955 20.7108 65.0955Z" fill="#FCA62F"/>
<path d="M19.3207 64.9449C19.7687 65.0426 20.2335 65.0955 20.7109 65.0955C24.2996 65.0955 27.2088 62.1863 27.2088 58.5976C27.2088 55.0088 24.2996 52.0996 20.7109 52.0996C20.233 52.0996 19.7678 52.1527 19.3193 52.2505C21.903 53.2012 23.7444 55.6848 23.7444 58.598C23.7444 61.5107 21.9037 63.9938 19.3207 64.9449Z" fill="#F98824"/>
<path d="M17.9916 82.7049C21.5803 82.7049 24.4895 79.7956 24.4895 76.2069C24.4895 72.6182 21.5803 69.709 17.9916 69.709C14.4029 69.709 11.4937 72.6182 11.4937 76.2069C11.4937 79.7956 14.4029 82.7049 17.9916 82.7049Z" fill="#31A7FB"/>
<path d="M24.4891 76.2068C24.4891 79.7948 21.5803 82.7047 17.9913 82.7047C17.292 82.7047 16.6181 82.5939 15.9863 82.3883C18.5945 81.5445 20.4792 79.0956 20.4792 76.2068C20.4792 73.3181 18.5945 70.8691 15.9863 70.0254C16.6181 69.8197 17.292 69.709 17.9913 69.709C21.5803 69.709 24.4891 72.6178 24.4891 76.2068Z" fill="#1C96F9"/>
<path d="M34.6791 89.9666C38.2678 89.9666 41.177 87.0574 41.177 83.4686C41.177 79.8799 38.2678 76.9707 34.6791 76.9707C31.0904 76.9707 28.1812 79.8799 28.1812 83.4686C28.1812 87.0574 31.0904 89.9666 34.6791 89.9666Z" fill="#FB3A82"/>
<path d="M41.1766 83.4685C41.1766 87.0576 38.2678 89.9664 34.6788 89.9664C33.9795 89.9664 33.3056 89.8556 32.6738 89.65C35.281 88.8062 37.1667 86.3573 37.1667 83.4685C37.1667 80.5798 35.281 78.1308 32.6738 77.2871C33.3056 77.0814 33.9795 76.9707 34.6788 76.9707C38.2678 76.9707 41.1766 79.8795 41.1766 83.4685Z" fill="#FB1466"/>
<path d="M46.2464 70.8549H44.9285V69.5369C44.9285 68.9869 44.4826 68.541 43.9326 68.541H42.7019C42.1519 68.541 41.7059 68.9869 41.7059 69.5369V70.8549H40.388C39.838 70.8549 39.3921 71.3008 39.3921 71.8508V73.0815C39.3921 73.6315 39.838 74.0774 40.388 74.0774H41.7059V75.3953C41.7059 75.9454 42.1519 76.3913 42.7019 76.3913H43.9326C44.4826 76.3913 44.9285 75.9454 44.9285 75.3953V74.0772H46.2464C46.7964 74.0772 47.2423 73.6313 47.2423 73.0813V71.8506C47.2423 71.3007 46.7964 70.8549 46.2464 70.8549Z" fill="#23F1A8"/>
<path d="M31.5916 45.6049H30.2737V44.2869C30.2737 43.7369 29.8278 43.291 29.2778 43.291H28.0471C27.4971 43.291 27.0512 43.7369 27.0512 44.2869V45.6049H25.7332C25.1832 45.6049 24.7373 46.0508 24.7373 46.6008V47.8315C24.7373 48.3815 25.1832 48.8274 25.7332 48.8274H27.0512V50.1453C27.0512 50.6953 27.4971 51.1413 28.0471 51.1413H29.2778C29.8278 51.1413 30.2737 50.6953 30.2737 50.1453V48.8273H31.5916C32.1416 48.8273 32.5876 48.3814 32.5876 47.8314V46.6007C32.5874 46.0507 32.1416 45.6049 31.5916 45.6049Z" fill="#23F1A8"/>
<path d="M12.2785 85.9027H10.9606V84.5848C10.9606 84.0348 10.5147 83.5889 9.96468 83.5889H8.73399C8.18397 83.5889 7.73806 84.0348 7.73806 84.5848V85.9027H6.42024C5.87023 85.9027 5.42432 86.3486 5.42432 86.8986V88.1293C5.42432 88.6794 5.87023 89.1253 6.42024 89.1253H7.73816V90.4432C7.73816 90.9932 8.18408 91.4391 8.73409 91.4391H9.96479C10.5148 91.4391 10.9607 90.9932 10.9607 90.4432V89.1253H12.2786C12.8286 89.1253 13.2746 88.6794 13.2746 88.1293V86.8986C13.2744 86.3486 12.8285 85.9027 12.2785 85.9027Z" fill="#23F1A8"/>
<path d="M30.2311 61.9434H28.5C28.063 61.9434 27.709 62.2975 27.709 62.7344V68.528C27.709 68.9648 28.063 69.319 28.5 69.319H30.2311C31.8101 69.319 33.0945 68.0345 33.0945 66.4556V64.8067C33.0945 63.2278 31.81 61.9434 30.2311 61.9434ZM31.5125 66.4556C31.5125 67.1622 30.9377 67.737 30.2311 67.737H29.291V63.5254H30.2311C30.9377 63.5254 31.5125 64.1002 31.5125 64.8067V66.4556Z" fill="black"/>
<path d="M53.3082 55.2284C52.4794 53.4508 51.0077 52.1024 49.1648 51.4316L37.8133 47.3C37.2756 47.1043 36.6938 47.1296 36.1752 47.3715C35.6565 47.6133 35.2631 48.0427 35.0674 48.5804L31.5101 58.3538C31.4975 58.3883 31.4888 58.4231 31.4781 58.4578C31.0535 58.3817 30.6216 58.3422 30.1861 58.3422C29.4423 58.3422 28.7031 58.4572 27.9979 58.6783C27.9982 58.6513 27.9999 58.6246 27.9999 58.5975C27.9999 54.5784 24.7301 51.3086 20.711 51.3086C20.4599 51.3086 20.2117 51.3213 19.967 51.3462L18.9292 48.4947C18.5252 47.3848 17.2933 46.8103 16.1833 47.2142L10.4153 49.3137C10.0047 49.4631 9.7931 49.917 9.94245 50.3275C10.0919 50.7381 10.5456 50.9496 10.9563 50.8003L16.7243 48.7009C17.0143 48.595 17.337 48.7454 17.4426 49.0359L18.4065 51.684C15.5138 52.651 13.4221 55.3836 13.4221 58.5974C13.4221 59.7773 13.7057 60.8916 14.2055 61.8785L9.31344 63.6591C6.32861 64.7455 3.0162 63.2009 1.92988 60.216C1.4036 58.7701 1.47194 57.2058 2.12226 55.8111C2.77257 54.4165 3.92701 53.3587 5.37286 52.8324L7.71582 51.9797C8.1264 51.8302 8.33797 51.3763 8.18863 50.9658C8.03918 50.5552 7.58515 50.3434 7.17477 50.493L4.83182 51.3457C1.02719 52.7305 -0.941464 56.9523 0.443217 60.757C1.52732 63.7356 4.35004 65.589 7.35048 65.5889C8.18251 65.5889 9.02847 65.4462 9.85449 65.1456L15.0948 63.2382C16.4329 64.8546 18.4537 65.8862 20.7111 65.8862C21.4732 65.8862 22.2081 65.7681 22.8991 65.5501C22.8988 65.577 22.8972 65.6039 22.8972 65.6307C22.8972 69.6499 26.167 72.9197 30.1861 72.9197C31.4279 72.9197 32.656 72.6002 33.7371 71.9958C34.1185 71.7826 34.2548 71.3008 34.0417 70.9194C33.8285 70.538 33.3464 70.4016 32.9653 70.6149C32.1194 71.0877 31.1584 71.3377 30.1861 71.3377C27.0393 71.3377 24.4792 68.7776 24.4792 65.6307C24.4792 65.3507 24.5004 65.0708 24.5407 64.7954C26.1026 63.8269 27.2728 62.2855 27.756 60.4665C28.5114 60.1112 29.3447 59.9238 30.1862 59.9238C30.6825 59.9238 31.1724 59.9879 31.6468 60.1132C31.8879 60.5545 32.2821 60.9143 32.7906 61.0994L34.258 61.6335C35.3124 62.707 35.8931 64.1242 35.8931 65.6307C35.8931 66.6298 35.6296 67.6145 35.1311 68.478C34.9127 68.8563 35.0423 69.3401 35.4206 69.5585C35.5453 69.6305 35.6812 69.6646 35.8154 69.6646C36.0887 69.6646 36.3546 69.5227 36.5011 69.2689C37.1382 68.1652 37.475 66.9071 37.475 65.6307C37.475 64.5517 37.2412 63.5086 36.7991 62.5584L44.1419 65.231C44.9615 65.5293 45.8107 65.6777 46.6577 65.6777C47.7154 65.6777 48.7694 65.4462 49.7566 64.9858C51.5341 64.1569 52.8825 62.6853 53.5533 60.8423C54.2242 58.9998 54.1372 57.0059 53.3082 55.2284ZM20.7111 64.3046C17.5643 64.3046 15.0041 61.7445 15.0041 58.5976C15.0041 55.4508 17.5643 52.8907 20.7111 52.8907C23.8579 52.8907 26.418 55.4508 26.418 58.5976C26.418 61.7445 23.8579 64.3046 20.7111 64.3046ZM52.0667 60.3019C51.5405 61.7477 50.4826 62.9023 49.0881 63.5526C47.6935 64.203 46.129 64.2711 44.6832 63.7449L33.3317 59.6133C33.0414 59.5076 32.8911 59.1853 32.9968 58.8949L36.5541 49.1216C36.6052 48.981 36.7082 48.8687 36.8438 48.8054C36.9795 48.7421 37.1316 48.7355 37.2722 48.7868L48.6236 52.9183C50.0697 53.4446 51.2241 54.5024 51.8743 55.897C52.5247 57.2915 52.593 58.8558 52.0667 60.3019Z" fill="black"/>
<path d="M22.0747 57.2341C22.3836 57.543 22.8845 57.543 23.1933 57.2341C23.5022 56.9252 23.5022 56.4243 23.1933 56.1155C21.8245 54.7467 19.5974 54.7467 18.2287 56.1155C16.86 57.4843 16.86 59.7113 18.2287 61.0801C18.9131 61.7644 19.8121 62.1066 20.711 62.1066C21.6099 62.1066 22.5089 61.7644 23.1933 61.0801C23.5022 60.7712 23.5022 60.2703 23.1933 59.9615C22.8844 59.6526 22.3835 59.6526 22.0747 59.9615C21.3227 60.7134 20.0994 60.7134 19.3474 59.9615C18.5955 59.2096 18.5955 57.9861 19.3474 57.2342C20.0994 56.4822 21.3227 56.4822 22.0747 57.2341Z" fill="black"/>
<path d="M17.9916 68.918C13.9724 68.918 10.7026 72.1878 10.7026 76.2068C10.7026 80.226 13.9724 83.4958 17.9916 83.4958C22.0107 83.4958 25.2805 80.226 25.2805 76.2068C25.2805 72.1878 22.0107 68.918 17.9916 68.918ZM17.9916 81.9139C14.8448 81.9139 12.2846 79.3537 12.2846 76.2069C12.2846 73.0602 14.8448 70.5001 17.9916 70.5001C21.1384 70.5001 23.6985 73.0602 23.6985 76.2069C23.6985 79.3537 21.1384 81.9139 17.9916 81.9139Z" fill="black"/>
<path d="M20.1243 75.8288C20.3414 75.4934 20.4688 75.0948 20.4688 74.6665C20.4688 73.4827 19.5057 72.5195 18.3218 72.5195H16.3052C15.8683 72.5195 15.5142 72.8737 15.5142 73.3105V76.0225V79.1042C15.5142 79.541 15.8683 79.8952 16.3052 79.8952H18.568C19.8537 79.8952 20.8998 78.8492 20.8998 77.5634C20.8997 76.8752 20.6 76.2559 20.1243 75.8288ZM17.0962 74.1015H18.3218C18.6334 74.1015 18.8868 74.355 18.8868 74.6665C18.8868 74.9781 18.6334 75.2315 18.3218 75.2315H17.0962V74.1015ZM18.568 78.3132H17.0962V76.8135H18.3218H18.5679C18.9813 76.8135 19.3177 77.1499 19.3177 77.5634C19.3177 77.9767 18.9814 78.3132 18.568 78.3132Z" fill="black"/>
<path d="M34.6794 76.1797C31.479 76.1797 28.6065 78.3209 27.6938 81.3866C27.5692 81.8053 27.8076 82.2457 28.2264 82.3704C28.6454 82.4952 29.0855 82.2566 29.2101 81.8379C29.9245 79.4379 32.1737 77.7617 34.6794 77.7617C37.8262 77.7617 40.3862 80.3218 40.3862 83.4686C40.3862 86.6155 37.8262 89.1756 34.6794 89.1756C32.0661 89.1756 29.7916 87.4091 29.1486 84.88C29.0409 84.4564 28.6099 84.2006 28.187 84.3084C27.7637 84.4161 27.5078 84.8466 27.6154 85.2699C28.437 88.501 31.3419 90.7577 34.6795 90.7577C38.6985 90.7577 41.9683 87.4879 41.9683 83.4687C41.9683 79.4496 38.6985 76.1797 34.6794 76.1797Z" fill="black"/>
<path d="M32.3597 86.4619C32.6807 86.4619 32.9825 86.265 33.1011 85.9465L33.3378 85.3103H36.0206L36.2573 85.9465C36.4097 86.3559 36.865 86.5644 37.2745 86.4121C37.684 86.2598 37.8924 85.8043 37.7401 85.3948L35.9898 80.6909C35.787 80.1462 35.2603 79.7803 34.6792 79.7803C34.0979 79.7803 33.571 80.1464 33.3684 80.6911L31.6182 85.3948C31.4659 85.8043 31.6742 86.2597 32.0837 86.4121C32.1749 86.4459 32.268 86.4619 32.3597 86.4619ZM35.4321 83.7284H33.9265L34.6793 81.7052L35.4321 83.7284Z" fill="black"/>
<path d="M46.2471 70.0638H45.7201V69.5369C45.7201 68.5517 44.9185 67.75 43.9333 67.75H42.7026C41.7173 67.75 40.9158 68.5517 40.9158 69.5369V70.0638H40.3889C39.4036 70.0638 38.6021 70.8654 38.6021 71.8507V73.0813C38.6021 74.0665 39.4037 74.8682 40.3889 74.8682H40.9158V75.3951C40.9158 76.3804 41.7175 77.1819 42.7026 77.1819H43.9333C44.9186 77.1819 45.7201 76.3804 45.7201 75.3951V74.8682H46.2471C47.2323 74.8682 48.0339 74.0665 48.0339 73.0813V71.8507C48.0339 70.8654 47.2323 70.0638 46.2471 70.0638ZM46.4519 73.0814C46.4519 73.1943 46.36 73.2863 46.2471 73.2863H44.9291C44.4922 73.2863 44.1381 73.6405 44.1381 74.0773V75.3952C44.1381 75.5082 44.0463 75.6 43.9333 75.6H42.7026C42.5897 75.6 42.4978 75.5081 42.4978 75.3952V74.0773C42.4978 73.6405 42.1438 73.2863 41.7068 73.2863H40.3889C40.2759 73.2863 40.1841 73.1943 40.1841 73.0814V71.8508C40.1841 71.7378 40.2759 71.646 40.3889 71.646H41.7068C42.1438 71.646 42.4978 71.2918 42.4978 70.855V69.537C42.4978 69.4241 42.5897 69.3321 42.7026 69.3321H43.9333C44.0463 69.3321 44.1381 69.4241 44.1381 69.537V70.855C44.1381 71.2918 44.4922 71.646 44.9291 71.646H46.2471C46.36 71.646 46.4519 71.7379 46.4519 71.8508V73.0814Z" fill="black"/>
<path d="M25.7336 49.6181H26.2606V50.145C26.2606 51.1303 27.0622 51.9319 28.0475 51.9319H29.2781C30.2634 51.9319 31.065 51.1303 31.065 50.145V49.6181H31.5919C32.5772 49.6181 33.3787 48.8165 33.3787 47.8313V46.6007C33.3787 45.6154 32.5771 44.8137 31.5919 44.8137H31.065V44.2868C31.065 43.3016 30.2633 42.5 29.2781 42.5H28.0475C27.0622 42.5 26.2606 43.3016 26.2606 44.2868V44.8137H25.7336C24.7483 44.8137 23.9468 45.6154 23.9468 46.6007V47.8313C23.9467 48.8165 24.7482 49.6181 25.7336 49.6181ZM25.5287 46.6007C25.5287 46.4877 25.6206 46.3958 25.7335 46.3958H27.0515C27.4885 46.3958 27.8425 46.0416 27.8425 45.6047V44.2868C27.8425 44.1739 27.9344 44.082 28.0473 44.082H29.278C29.391 44.082 29.4829 44.174 29.4829 44.2868V45.6047C29.4829 46.0416 29.8369 46.3958 30.2739 46.3958H31.5918C31.7047 46.3958 31.7966 46.4877 31.7966 46.6007V47.8313C31.7966 47.9442 31.7047 48.0361 31.5918 48.0361H30.2739C29.8369 48.0361 29.4829 48.3902 29.4829 48.8271V50.145C29.4829 50.258 29.391 50.3499 29.278 50.3499H28.0473C27.9344 50.3499 27.8425 50.258 27.8425 50.145V48.8271C27.8425 48.3902 27.4885 48.0361 27.0515 48.0361H25.7335C25.6205 48.0361 25.5287 47.9441 25.5287 47.8313V46.6007Z" fill="black"/>
<path d="M12.279 85.1117H11.7521V84.5848C11.7521 83.5995 10.9504 82.7979 9.96516 82.7979H8.73446C7.74919 82.7979 6.94764 83.5995 6.94764 84.5848V85.1117H6.42072C5.43545 85.1117 4.63379 85.9133 4.63379 86.8985V88.1291C4.63379 89.1144 5.43545 89.9161 6.42072 89.9161H6.94764V90.443C6.94764 91.4282 7.74919 92.2298 8.73446 92.2298H9.96506C10.9503 92.2298 11.752 91.4282 11.752 90.443V89.9161H12.2789C13.2642 89.9161 14.0657 89.1144 14.0657 88.1291V86.8985C14.0658 85.9133 13.2643 85.1117 12.279 85.1117ZM12.4838 88.1291C12.4838 88.2421 12.3919 88.334 12.279 88.334H10.9611C10.5242 88.334 10.1701 88.6882 10.1701 89.125V90.443C10.1701 90.5559 10.0781 90.6478 9.96516 90.6478H8.73446C8.62151 90.6478 8.52965 90.5558 8.52965 90.443V89.125C8.52965 88.6882 8.17549 88.334 7.73864 88.334H6.42072C6.30777 88.334 6.2158 88.2421 6.2158 88.1291V86.8985C6.2158 86.7856 6.30777 86.6937 6.42072 86.6937H7.73864C8.17549 86.6937 8.52965 86.3395 8.52965 85.9027V84.5848C8.52965 84.4718 8.62161 84.3799 8.73446 84.3799H9.96506C10.078 84.3799 10.17 84.4718 10.17 84.5848V85.9027C10.17 86.3395 10.5241 86.6937 10.961 86.6937H12.2789C12.3919 86.6937 12.4837 86.7857 12.4837 86.8985V88.1291H12.4838Z" fill="black"/>
<path d="M53.7875 24.4625C53.7875 31.9833 47.5313 38 39.8937 38C32.2562 38 26 31.9833 26 24.4625C26 16.9417 39.8937 0 39.8937 0C39.8937 0 53.7875 17.0208 53.7875 24.4625Z" fill="#84DBFF"/>
<path d="M39.8938 34.4379C34.2875 34.4379 29.6562 30.0046 29.6562 24.4629C29.6562 23.8296 30.225 23.2754 30.875 23.2754C31.525 23.2754 32.0938 23.8296 32.0938 24.4629C32.0938 28.6587 35.5875 32.0629 39.8938 32.0629C40.5437 32.0629 41.1125 32.6171 41.1125 33.2504C41.1125 33.8837 40.5437 34.4379 39.8938 34.4379Z" fill="white"/>
</svg>
