<svg width="64" height="78" viewBox="0 0 64 78" fill="none" xmlns="http://www.w3.org/2000/svg">
<path d="M17.0361 21.1857H22.3519V11.3622C22.3519 8.46955 21.1704 5.84178 19.2671 3.93837C17.3636 2.035 14.7357 0.853516 11.8431 0.853516H2.06062C1.39526 0.853516 0.852539 1.39619 0.852539 2.0616V4.9612C0.852539 5.62657 1.39526 6.16929 2.06062 6.16929H11.8431C13.2685 6.16929 14.5662 6.7543 15.5087 7.69673C16.4511 8.63916 17.0361 9.93695 17.0361 11.3622V21.1857Z" fill="#BDC5CB"/>
<path fill-rule="evenodd" clip-rule="evenodd" d="M46.925 77.1471L43.3062 46.7512L46.925 19.4834H61.6222C62.2815 19.4834 62.8209 20.0228 62.8209 20.6821V75.9483C62.8209 76.6076 62.2815 77.147 61.6222 77.147L46.925 77.1471Z" fill="#7BC34C"/>
<path fill-rule="evenodd" clip-rule="evenodd" d="M10.0199 19.4835H46.925V77.1472H10.0199C9.34585 77.1472 8.79443 76.5958 8.79443 75.9217V20.7089C8.79443 20.0348 9.34585 19.4835 10.0199 19.4835Z" fill="#A3E261"/>
<path fill-rule="evenodd" clip-rule="evenodd" d="M8.79443 34.1884V62.4403C13.5076 66.6627 20.3038 69.3133 27.8597 69.3133C35.4157 69.3133 42.2118 66.6628 46.925 62.4404V34.1883C42.2118 29.9659 35.4157 27.3154 27.8597 27.3154C20.3038 27.3154 13.5076 29.966 8.79443 34.1884Z" fill="#F29C1F"/>
<path fill-rule="evenodd" clip-rule="evenodd" d="M46.7817 20.5644L46.9252 19.4834H48.0979L54.8732 26.5989L61.6481 19.4838C62.2957 19.4976 62.8211 20.0314 62.8211 20.6821V20.7151L55.7247 28.1679V77.1471H54.0216V28.1679L46.7817 20.5644Z" fill="#5EAC3C"/>
<path d="M22.352 12.2137V11.3622C22.352 11.0756 22.3402 10.7917 22.3175 10.5107H16.9656C17.0121 10.788 17.0362 11.0725 17.0362 11.3622V12.2137H22.352ZM19.8449 4.56471C19.6607 4.34823 19.468 4.1392 19.2672 3.93837C19.0663 3.73753 18.8573 3.54479 18.6408 3.3606L14.8578 7.1436C15.0895 7.31019 15.3073 7.49524 15.5088 7.69673C15.7103 7.89822 15.8953 8.116 16.0619 8.34771L19.8449 4.56471ZM12.6947 0.888061C12.4137 0.865332 12.1298 0.853516 11.8432 0.853516H10.9917V6.16929H11.8432C12.133 6.16929 12.4175 6.19347 12.6947 6.23988V0.888061Z" fill="#929A9F"/>
<path d="M17.0361 21.1857H22.3519V11.3622C22.3519 8.46955 21.1704 5.84178 19.2671 3.93837C17.3636 2.035 14.7357 0.853516 11.8431 0.853516H2.06062C1.39526 0.853516 0.852539 1.39619 0.852539 2.0616V4.9612C0.852539 5.62657 1.39526 6.16929 2.06062 6.16929H11.8431C13.2685 6.16929 14.5662 6.7543 15.5087 7.69673C16.4511 8.63916 17.0361 9.93695 17.0361 11.3622V21.1857Z" fill="#BDC5CB"/>
<path fill-rule="evenodd" clip-rule="evenodd" d="M46.925 77.1471L43.3062 46.7512L46.925 19.4834H61.6222C62.2815 19.4834 62.8209 20.0228 62.8209 20.6821V75.9483C62.8209 76.6076 62.2815 77.147 61.6222 77.147L46.925 77.1471Z" fill="#D0004B"/>
<path fill-rule="evenodd" clip-rule="evenodd" d="M10.0199 19.4835H46.925V77.1472H10.0199C9.34585 77.1472 8.79443 76.5958 8.79443 75.9217V20.7089C8.79443 20.0348 9.34585 19.4835 10.0199 19.4835Z" fill="#D0004B"/>
<path fill-rule="evenodd" clip-rule="evenodd" d="M8.79443 34.1884V62.4403C13.5076 66.6627 20.3038 69.3133 27.8597 69.3133C35.4157 69.3133 42.2118 66.6628 46.925 62.4404V34.1883C42.2118 29.9659 35.4157 27.3154 27.8597 27.3154C20.3038 27.3154 13.5076 29.966 8.79443 34.1884Z" fill="#F9FBF2"/>
<path fill-rule="evenodd" clip-rule="evenodd" d="M46.7817 20.5644L46.9252 19.4834H48.0979L54.8732 26.5989L61.6481 19.4838C62.2957 19.4976 62.8211 20.0314 62.8211 20.6821V20.7151L55.7247 28.1679V77.1471H54.0216V28.1679L46.7817 20.5644Z" fill="#5EAC3C"/>
<path d="M22.352 12.2137V11.3622C22.352 11.0756 22.3402 10.7917 22.3175 10.5107H16.9656C17.0121 10.788 17.0362 11.0725 17.0362 11.3622V12.2137H22.352ZM19.8449 4.56471C19.6607 4.34823 19.468 4.1392 19.2672 3.93837C19.0663 3.73753 18.8573 3.54479 18.6408 3.3606L14.8578 7.1436C15.0895 7.31019 15.3073 7.49524 15.5088 7.69673C15.7103 7.89822 15.8953 8.116 16.0619 8.34771L19.8449 4.56471ZM12.6947 0.888061C12.4137 0.865332 12.1298 0.853516 11.8432 0.853516H10.9917V6.16929H11.8432C12.133 6.16929 12.4175 6.19347 12.6947 6.23988V0.888061Z" fill="#929A9F"/>
<path fill-rule="evenodd" clip-rule="evenodd" d="M10.0193 20.333C9.81534 20.333 9.64488 20.5044 9.64488 20.7071V75.9225C9.64488 76.1253 9.81519 76.2968 10.0192 76.2968L46.0743 76.2965V20.3329L10.0193 20.333ZM46.9257 77.9997H10.0193C8.87336 77.9997 7.94189 77.068 7.94189 75.9228L7.94199 20.7069C7.94199 19.5619 8.87321 18.6302 10.0192 18.6302L46.9257 18.6299C47.3959 18.6299 47.7771 19.0114 47.7771 19.4817L47.7772 77.1479C47.7772 77.6185 47.3957 77.9999 46.9257 77.9997Z" fill="black"/>
<path fill-rule="evenodd" clip-rule="evenodd" d="M8.79373 35.0398C8.55941 35.0398 8.32704 34.9445 8.15849 34.7568C7.84456 34.4063 7.87468 33.8683 8.22592 33.5544C13.255 29.048 20.4109 26.4639 27.8597 26.4639C35.3085 26.4636 42.4644 29.0483 47.4935 33.5543C47.8449 33.868 47.8731 34.4064 47.5609 34.7566C47.2469 35.1069 46.7076 35.1364 46.3582 34.8228C41.6362 30.5927 34.8933 28.1669 27.8597 28.1669C20.8261 28.1667 14.0834 30.5929 9.36124 34.8228C9.19983 34.9683 8.99577 35.0401 8.79373 35.0398ZM27.8597 70.1667C20.411 70.1667 13.255 67.5824 8.22592 63.0763C7.87468 62.7623 7.84451 62.2241 8.15849 61.8737C8.47261 61.523 9.01171 61.4939 9.36124 61.8077C14.0834 66.0376 20.8261 68.4638 27.8597 68.4638C34.8934 68.4635 41.636 66.0378 46.3582 61.8079C46.7077 61.4939 47.2469 61.5235 47.5609 61.8739C47.8732 62.2239 47.8447 62.7624 47.4935 63.0763C42.4645 67.5823 35.3084 70.1668 27.8597 70.1667Z" fill="black"/>
<path fill-rule="evenodd" clip-rule="evenodd" d="M61.6246 77.9995H46.9257C46.4558 77.9995 46.0742 77.6183 46.0742 77.148C46.0744 76.6779 46.4556 76.2967 46.9257 76.2967L61.6246 76.2964C61.8126 76.2964 61.9704 76.1376 61.9704 75.9494L61.9705 20.6802C61.9705 20.4922 61.8125 20.3332 61.6244 20.3332L46.9257 20.333C46.4558 20.333 46.0742 19.952 46.0742 19.4817C46.0744 19.0114 46.4556 18.6302 46.9257 18.6302L61.6246 18.6299C62.7546 18.6299 63.6733 19.55 63.6733 20.6805L63.6734 75.9492C63.6734 77.0799 62.7544 77.9997 61.6246 77.9995Z" fill="black"/>
<path fill-rule="evenodd" clip-rule="evenodd" d="M54.8749 28.6803C54.6408 28.6803 54.419 28.5851 54.2576 28.4162L46.3087 20.0686C45.9859 19.7281 45.9982 19.1892 46.3388 18.8649C46.6795 18.5403 47.2187 18.5536 47.5433 18.8944L54.8749 26.594L61.8626 19.2552C62.1871 18.9147 62.7263 18.9015 63.0669 19.2257C63.4076 19.5497 63.4199 20.0889 63.0953 20.4295L55.4906 28.416C55.3309 28.5849 55.1073 28.6806 54.8749 28.6803Z" fill="black"/>
<path fill-rule="evenodd" clip-rule="evenodd" d="M54.8749 78.0004C54.4049 78.0004 54.0234 77.6192 54.0234 77.1489L54.0235 27.8298C54.0235 27.3596 54.4048 26.9785 54.8749 26.9785C55.3451 26.9785 55.7264 27.3597 55.7264 27.83L55.7264 77.1486C55.7264 77.6192 55.345 78.0004 54.8749 78.0004Z" fill="black"/>
<path fill-rule="evenodd" clip-rule="evenodd" d="M22.3514 20.333C21.8814 20.333 21.4999 19.9521 21.4999 19.4818L21.5001 11.3605C21.5001 8.79012 20.4924 6.36732 18.6634 4.53867C16.8364 2.71013 14.4131 1.70298 11.8427 1.70298L2.0595 1.70268C1.86274 1.70268 1.70293 1.86304 1.70293 2.05975L1.70308 4.9592C1.70308 5.15602 1.86259 5.31617 2.0595 5.31617L11.8428 5.31607C13.4482 5.31607 14.9648 5.94724 16.1107 7.09307C17.2551 8.2389 17.8864 9.75463 17.8864 11.3608L17.8865 19.4817C17.8865 19.9519 17.505 20.3332 17.035 20.3332C16.565 20.333 16.1835 19.9521 16.1835 19.4818L16.1836 11.3605C16.1836 10.2094 15.7293 9.12155 14.9063 8.29728C14.0814 7.47297 12.994 7.01915 11.8427 7.01915H2.0595C0.92438 7.01915 0 6.09523 0 4.95945V2.0595C0 0.923976 0.924178 0.000100226 2.0595 0.000100226L11.8428 0C14.8673 0 17.7179 1.18425 19.8679 3.33451C22.018 5.48488 23.2029 8.3353 23.2029 11.3608L23.203 19.4817C23.203 19.9519 22.8215 20.3332 22.3514 20.333Z" fill="black"/>
<path fill-rule="evenodd" clip-rule="evenodd" d="M11.8428 7.01916C11.3727 7.01916 10.9912 6.63795 10.9912 6.16769L10.9913 0.851366C10.9913 0.381156 11.3726 0 11.8427 0C12.3128 0 12.6941 0.381307 12.6941 0.851567L12.6942 6.16739C12.6942 6.6376 12.3128 7.01916 11.8428 7.01916Z" fill="black"/>
<path fill-rule="evenodd" clip-rule="evenodd" d="M22.3515 12.2119H17.0353C16.5651 12.2119 16.1836 11.8307 16.1836 11.3605C16.1837 10.89 16.565 10.5089 17.0351 10.5089L22.3515 10.5088C22.8217 10.5088 23.203 10.8902 23.203 11.3605C23.2031 11.8307 22.8216 12.212 22.3515 12.2119Z" fill="black"/>
<path fill-rule="evenodd" clip-rule="evenodd" d="M15.5082 8.54657C15.2901 8.54657 15.0718 8.4635 14.9068 8.29721C14.5735 7.96463 14.5733 7.42553 14.9068 7.09299L18.664 3.33428C18.9976 3.0018 19.5367 3.00185 19.8685 3.33443C20.202 3.66676 20.202 4.20607 19.8685 4.5386L16.1113 8.29711C15.9447 8.46315 15.7263 8.54667 15.5082 8.54657Z" fill="black"/>
<path fill-rule="evenodd" clip-rule="evenodd" d="M10.0193 20.333C9.81534 20.333 9.64488 20.5044 9.64488 20.7071V75.9225C9.64488 76.1253 9.81519 76.2968 10.0192 76.2968L46.0743 76.2965V20.3329L10.0193 20.333ZM46.9257 77.9997H10.0193C8.87336 77.9997 7.94189 77.068 7.94189 75.9228L7.94199 20.7069C7.94199 19.5619 8.87321 18.6302 10.0192 18.6302L46.9257 18.6299C47.3959 18.6299 47.7771 19.0114 47.7771 19.4817L47.7772 77.1479C47.7772 77.6185 47.3957 77.9999 46.9257 77.9997Z" fill="black"/>
<path fill-rule="evenodd" clip-rule="evenodd" d="M8.79373 35.0398C8.55941 35.0398 8.32704 34.9445 8.15849 34.7568C7.84456 34.4063 7.87468 33.8683 8.22592 33.5544C13.255 29.048 20.4109 26.4639 27.8597 26.4639C35.3085 26.4636 42.4644 29.0483 47.4935 33.5543C47.8449 33.868 47.8731 34.4064 47.5609 34.7566C47.2469 35.1069 46.7076 35.1364 46.3582 34.8228C41.6362 30.5927 34.8933 28.1669 27.8597 28.1669C20.8261 28.1667 14.0834 30.5929 9.36124 34.8228C9.19983 34.9683 8.99577 35.0401 8.79373 35.0398ZM27.8597 70.1667C20.411 70.1667 13.255 67.5824 8.22592 63.0763C7.87468 62.7623 7.84451 62.2241 8.15849 61.8737C8.47261 61.523 9.01171 61.4939 9.36124 61.8077C14.0834 66.0376 20.8261 68.4638 27.8597 68.4638C34.8934 68.4635 41.636 66.0378 46.3582 61.8079C46.7077 61.4939 47.2469 61.5235 47.5609 61.8739C47.8732 62.2239 47.8447 62.7624 47.4935 63.0763C42.4645 67.5823 35.3084 70.1668 27.8597 70.1667Z" fill="black"/>
<path fill-rule="evenodd" clip-rule="evenodd" d="M61.6246 77.9995H46.9257C46.4558 77.9995 46.0742 77.6183 46.0742 77.148C46.0744 76.6779 46.4556 76.2967 46.9257 76.2967L61.6246 76.2964C61.8126 76.2964 61.9704 76.1376 61.9704 75.9494L61.9705 20.6802C61.9705 20.4922 61.8125 20.3332 61.6244 20.3332L46.9257 20.333C46.4558 20.333 46.0742 19.952 46.0742 19.4817C46.0744 19.0114 46.4556 18.6302 46.9257 18.6302L61.6246 18.6299C62.7546 18.6299 63.6733 19.55 63.6733 20.6805L63.6734 75.9492C63.6734 77.0799 62.7544 77.9997 61.6246 77.9995Z" fill="black"/>
<path fill-rule="evenodd" clip-rule="evenodd" d="M54.8749 28.6803C54.6408 28.6803 54.419 28.5851 54.2576 28.4162L46.3087 20.0686C45.9859 19.7281 45.9982 19.1892 46.3388 18.8649C46.6795 18.5403 47.2187 18.5536 47.5433 18.8944L54.8749 26.594L61.8626 19.2552C62.1871 18.9147 62.7263 18.9015 63.0669 19.2257C63.4076 19.5497 63.4199 20.0889 63.0953 20.4295L55.4906 28.416C55.3309 28.5849 55.1073 28.6806 54.8749 28.6803Z" fill="black"/>
<path fill-rule="evenodd" clip-rule="evenodd" d="M54.8749 78.0004C54.4049 78.0004 54.0234 77.6192 54.0234 77.1489L54.0235 27.8298C54.0235 27.3596 54.4048 26.9785 54.8749 26.9785C55.3451 26.9785 55.7264 27.3597 55.7264 27.83L55.7264 77.1486C55.7264 77.6192 55.345 78.0004 54.8749 78.0004Z" fill="black"/>
<path fill-rule="evenodd" clip-rule="evenodd" d="M22.3514 20.333C21.8814 20.333 21.4999 19.9521 21.4999 19.4818L21.5001 11.3605C21.5001 8.79012 20.4924 6.36732 18.6634 4.53867C16.8364 2.71013 14.4131 1.70298 11.8427 1.70298L2.0595 1.70268C1.86274 1.70268 1.70293 1.86304 1.70293 2.05975L1.70308 4.9592C1.70308 5.15602 1.86259 5.31617 2.0595 5.31617L11.8428 5.31607C13.4482 5.31607 14.9648 5.94724 16.1107 7.09307C17.2551 8.2389 17.8864 9.75463 17.8864 11.3608L17.8865 19.4817C17.8865 19.9519 17.505 20.3332 17.035 20.3332C16.565 20.333 16.1835 19.9521 16.1835 19.4818L16.1836 11.3605C16.1836 10.2094 15.7293 9.12155 14.9063 8.29728C14.0814 7.47297 12.994 7.01915 11.8427 7.01915H2.0595C0.92438 7.01915 0 6.09523 0 4.95945V2.0595C0 0.923976 0.924178 0.000100226 2.0595 0.000100226L11.8428 0C14.8673 0 17.7179 1.18425 19.8679 3.33451C22.018 5.48488 23.2029 8.3353 23.2029 11.3608L23.203 19.4817C23.203 19.9519 22.8215 20.3332 22.3514 20.333Z" fill="black"/>
<path fill-rule="evenodd" clip-rule="evenodd" d="M11.8428 7.01916C11.3727 7.01916 10.9912 6.63795 10.9912 6.16769L10.9913 0.851366C10.9913 0.381156 11.3726 0 11.8427 0C12.3128 0 12.6941 0.381307 12.6941 0.851567L12.6942 6.16739C12.6942 6.6376 12.3128 7.01916 11.8428 7.01916Z" fill="black"/>
<path fill-rule="evenodd" clip-rule="evenodd" d="M22.3515 12.2119H17.0353C16.5651 12.2119 16.1836 11.8307 16.1836 11.3605C16.1837 10.89 16.565 10.5089 17.0351 10.5089L22.3515 10.5088C22.8217 10.5088 23.203 10.8902 23.203 11.3605C23.2031 11.8307 22.8216 12.212 22.3515 12.2119Z" fill="black"/>
<path fill-rule="evenodd" clip-rule="evenodd" d="M15.5082 8.54657C15.2901 8.54657 15.0718 8.4635 14.9068 8.29721C14.5735 7.96463 14.5733 7.42553 14.9068 7.09299L18.664 3.33428C18.9976 3.0018 19.5367 3.00185 19.8685 3.33443C20.202 3.66676 20.202 4.20607 19.8685 4.5386L16.1113 8.29711C15.9447 8.46315 15.7263 8.54667 15.5082 8.54657Z" fill="black"/>
<path d="M18.8012 46.6104L16.5501 43.7587C16.4755 43.6678 16.4062 43.5727 16.3425 43.4739C14.7204 40.9828 16.4101 37 16.4101 37C16.4101 37 20.7357 37.0579 22.3578 39.549C22.8634 40.389 23.1087 41.36 23.0626 42.3394V45.6859L18.8012 46.6104Z" fill="#4FBA6F"/>
<path d="M21.3431 47.8879C21.3201 47.8879 21.2972 47.8863 21.2745 47.8831C21.2117 47.8742 21.1513 47.853 21.0967 47.8207C21.042 47.7885 20.9943 47.7458 20.9562 47.6951C20.9181 47.6444 20.8903 47.5867 20.8746 47.5252C20.8588 47.4638 20.8552 47.3998 20.8642 47.337C21.5429 42.5625 17.8083 39.8334 17.7701 39.8059C17.6685 39.7304 17.6006 39.6181 17.581 39.493C17.5614 39.368 17.5917 39.2402 17.6654 39.1373C17.7391 39.0344 17.8502 38.9645 17.9749 38.9427C18.0996 38.921 18.2279 38.949 18.3321 39.0209C18.5054 39.145 22.5804 42.1241 21.8205 47.4727C21.8043 47.5878 21.747 47.6931 21.6593 47.7694C21.5716 47.8457 21.4593 47.8877 21.3431 47.8879Z" fill="#24AE5F"/>
<path d="M21.9102 46.4394C22.0141 45.0141 22.4042 43.6244 23.0572 42.3533V42.3484C23.8871 40.7491 25.1744 39.4331 26.7552 38.5684C26.8661 38.5069 26.9881 38.4678 27.1142 38.4535C27.2402 38.4391 27.3678 38.4497 27.4898 38.4847C27.6117 38.5197 27.7255 38.5783 27.8248 38.6573C27.9241 38.7362 28.0068 38.834 28.0683 38.9449C28.1298 39.0559 28.1689 39.1778 28.1832 39.3039C28.1976 39.4299 28.187 39.5575 28.152 39.6795C28.117 39.8014 28.0584 39.9153 27.9794 40.0145C27.9005 40.1138 27.8027 40.1966 27.6918 40.2581C24.2525 42.165 23.8856 45.7717 23.8441 46.5248L21.9102 46.4394Z" fill="#A56A43"/>
<path d="M35.4305 52.4476C35.4305 59.3657 29.1546 64.9995 26.7407 64.9995C24.3269 64.9995 24.8097 64.034 22.8786 64.034C20.9475 64.034 21.4303 64.9995 19.0165 64.9995C17.4475 64.9995 14.2564 62.6243 12.2095 59.0663C11.0122 57.0634 10.3628 54.7808 10.3267 52.4476C10.3267 46.0268 13.2233 43.7578 16.6026 43.7578C19.4992 43.7578 20.4648 45.6889 22.8786 45.6889C25.0607 45.6889 26.06 44.1102 28.3725 43.8061C28.632 43.7747 28.8931 43.7586 29.1546 43.7578C32.5339 43.7578 35.4305 46.0268 35.4305 52.4476Z" fill="#C03A2B"/>
<path d="M29.6373 49.0682C29.6366 52.1409 28.4156 55.0875 26.2429 57.2602C24.0702 59.4329 21.1236 60.6539 18.0509 60.6546C15.9965 60.6595 13.9786 60.1109 12.2095 59.0663C11.0122 57.0634 10.3628 54.7808 10.3267 52.4476C10.3267 46.0268 13.2233 43.7578 16.6026 43.7578C19.4992 43.7578 20.4648 45.6889 22.8786 45.6889C25.0607 45.6889 26.06 44.1102 28.3725 43.8061C29.2072 45.4344 29.6409 47.2385 29.6373 49.0682Z" fill="#E64C3C"/>
<path d="M34.1118 33.4242C34.1118 33.4242 34.2989 35.1991 33.2207 36.0269L33.11 35.935C33.11 35.935 32.94 36.3157 32.6291 36.4528L32.4689 36.2677C32.4689 36.2677 32.1953 36.6886 31.669 36.9292L31.5373 36.7298C31.5373 36.7298 30.9789 37.1662 30.3958 37.1319L30.4222 36.8623C30.4222 36.8623 29.6129 37.2018 29.3869 37.1414L29.4477 36.854C29.4477 36.854 28.8742 37.012 28.5274 36.9063L28.5847 36.6185C28.5847 36.6185 28.159 36.7419 27.9828 36.7065L27.9474 36.429L26.6802 36.8538C27.4179 33.7833 30.1826 32.6077 31.6762 32.7047C32.9563 32.788 33.8123 33.4386 34.1118 33.4242Z" fill="#6CCE17"/>
<path d="M35.5049 45.9587L35.5061 45.9659C36.2709 47.722 38.0197 49.1127 40.6301 48.6233C43.2135 48.139 44.9937 45.5763 44.7088 43.055C44.3001 39.4068 41.9348 38.7208 39.5813 39.0359C39.3773 39.0667 39.1664 39.0988 38.9568 39.1381C37.7259 39.3688 36.7102 40.0564 36.0218 40.9942L35.3042 44.024L35.5049 45.9587Z" fill="#EA1121"/>
<path d="M36.2978 44.2459C35.5152 46.9692 33.3256 48.4312 30.7432 47.9261C27.5277 47.2971 26.3692 44.891 26.6698 42.3371C26.9929 39.5926 28.8013 37.8727 31.6755 38.4008C34.2628 38.8763 37.3454 40.6009 36.2978 44.2459Z" fill="#EA1121"/>
<path opacity="0.41" d="M38.9415 43.6656C39.5159 43.2558 39.7796 42.603 39.5303 42.2073C39.2811 41.8117 38.6135 41.823 38.0391 42.2328C37.4647 42.6425 37.201 43.2954 37.4503 43.691C37.6995 44.0867 38.3671 44.0753 38.9415 43.6656Z" fill="white"/>
<path opacity="0.41" d="M29.6642 42.1704C30.2386 41.7607 30.5022 41.1079 30.253 40.7122C30.0038 40.3165 29.3361 40.3279 28.7617 40.7376C28.1873 41.1474 27.9237 41.8002 28.1729 42.1959C28.4221 42.5915 29.0898 42.5802 29.6642 42.1704Z" fill="white"/>
<path opacity="0.67" d="M34.6369 39.5566C34.6369 39.5566 38.0075 45.5677 31.1787 48.1005C31.1787 48.1005 35.7746 47.7236 36.413 43.7686C36.9055 40.718 34.6369 39.5566 34.6369 39.5566Z" fill="#C30008"/>
<path opacity="0.67" d="M42.9455 39.8574C42.9455 39.8574 46.6094 45.5672 39.5552 48.8849C39.5552 48.8849 44.0394 48.4857 44.7895 44.553C45.4762 40.9527 42.9455 39.8574 42.9455 39.8574Z" fill="#C30008"/>
<path d="M33.7052 33.282C32.9105 32.8468 30.9997 32.0505 28.9652 33.5447C27.7363 34.4473 27.2397 35.5038 26.9443 36.5946C26.9443 36.5946 29.4261 32.6999 34.1195 33.5447C34.1196 33.5447 33.9714 33.4278 33.7052 33.282Z" fill="#5EB509"/>
<path d="M39.6066 48.9997C37.3683 48.9997 35.9164 47.569 35.269 46.0827C35.2598 46.0616 35.2527 46.0386 35.2489 46.0155C35.2231 45.8648 35.3165 45.7162 35.4584 45.689C35.602 45.6618 35.7362 45.7576 35.7617 45.9089C36.6026 47.8208 38.4111 48.756 40.5846 48.3495C42.9925 47.8982 44.7267 45.5383 44.4492 43.0882C44.2933 41.6948 43.829 40.6679 43.0694 40.036C42.2537 39.3573 41.091 39.113 39.6139 39.3115C39.4168 39.3414 39.2089 39.3726 39.0019 39.4117C37.8899 39.62 36.9046 40.2427 36.2276 41.1651C36.138 41.2859 35.9741 41.3073 35.8609 41.2133C35.747 41.1186 35.727 40.9439 35.8156 40.823C36.5723 39.7921 37.6718 39.0964 38.9114 38.8639C39.1241 38.8242 39.3377 38.7917 39.5447 38.7604C41.1691 38.5433 42.4615 38.8249 43.3911 39.598C44.2642 40.3245 44.7949 41.4766 44.9683 43.022C45.2777 45.7596 43.3519 48.3956 40.6751 48.8965C40.3011 48.9672 39.9446 48.9997 39.6066 48.9997Z" fill="black"/>
<path d="M31.7565 48.3047C31.4121 48.3047 31.0581 48.2701 30.6962 48.1995C27.1071 47.497 26.1294 44.6926 26.4106 42.3022C26.5876 40.7986 27.182 39.6091 28.1298 38.8619C29.0692 38.1214 30.312 37.8683 31.7198 38.1265C32.7129 38.3087 35.1409 38.9389 36.2433 40.8461C36.8214 41.8465 36.9238 43.0173 36.5475 44.3268C35.8287 46.8292 34.0056 48.3047 31.7565 48.3047ZM30.6822 38.5843C29.8125 38.5843 29.0494 38.8289 28.4407 39.3088C27.6106 39.9631 27.0879 41.0222 26.9291 42.3714C26.6029 45.1412 28.0465 47.1156 30.7906 47.6524C33.2374 48.1275 35.3012 46.7613 36.0481 44.1639C36.3785 43.0142 36.2946 41.9958 35.7984 41.1375C34.8073 39.4232 32.554 38.8439 31.6311 38.6742C31.303 38.6142 30.9861 38.5843 30.6822 38.5843Z" fill="black"/>
<path d="M39.918 40.8392C39.8003 40.8392 39.6935 40.754 39.6645 40.6267L39.4521 39.6939C38.4989 35 36.2182 32.8722 35.2086 32.1365C35.4823 33.7389 35.8279 37.9456 32.6336 40.619C32.5201 40.714 32.3565 40.693 32.2669 40.5721C32.1776 40.4517 32.1973 40.2769 32.3109 40.1819C36.0263 37.072 34.5875 31.6988 34.5724 31.6448C34.5434 31.5403 34.5747 31.4273 34.6518 31.356C34.7297 31.2844 34.8394 31.2681 34.9318 31.3133C35.0839 31.3873 38.6683 33.2001 39.9614 39.5697L40.1722 40.4958C40.2063 40.6451 40.1202 40.7954 39.9799 40.8314C39.9591 40.8368 39.9384 40.8392 39.918 40.8392Z" fill="black"/>
<path d="M28.9227 35.7667C28.8344 35.7667 28.7482 35.7192 28.6992 35.633C28.6242 35.5016 28.6634 35.3306 28.7869 35.2512C29.9677 34.4886 31.4646 34.2429 32.5119 34.1714C33.4302 34.1089 34.2023 33.3983 34.3477 32.4821C34.4026 32.1366 34.3608 31.8919 34.3605 31.8896C34.334 31.7393 34.4262 31.5937 34.5675 31.5645C34.709 31.5363 34.8452 31.632 34.873 31.7823C34.8797 31.8166 34.9336 32.1298 34.8631 32.5751C34.6775 33.7424 33.7029 34.6472 32.5457 34.7265C31.7357 34.7818 30.2057 34.9851 29.058 35.7262C29.0155 35.7538 28.9689 35.7667 28.9227 35.7667Z" fill="black"/>
<path d="M29.4442 37.5107C29.3974 37.5107 29.3553 37.5063 29.3189 37.4964C29.2165 37.4693 29.1432 37.3807 29.1257 37.2762C28.9082 37.3064 28.6403 37.3179 28.4231 37.2514C28.3275 37.2222 28.2592 37.1398 28.2394 37.042C28.1128 37.061 27.9815 37.0702 27.8842 37.0512C27.7866 37.0315 27.7088 36.9545 27.682 36.8551L26.6664 37.1951C26.5761 37.2259 26.4772 37.2008 26.4084 37.1319C26.3395 37.0624 26.3114 36.9589 26.3347 36.8611C27.1172 33.6061 30.0396 32.2653 31.7622 32.3688C32.6589 32.4272 33.3586 32.7394 33.8216 32.946C33.9858 33.019 34.1899 33.1103 34.2511 33.1113C34.3822 33.114 34.5059 33.2196 34.5206 33.3584C34.5292 33.4398 34.7164 35.3629 33.4938 36.3016C33.4411 36.3426 33.3774 36.3606 33.3152 36.3528C33.2099 36.5011 33.0489 36.6766 32.8298 36.7729C32.7441 36.8113 32.6452 36.7967 32.5715 36.7369C32.4149 36.9019 32.1707 37.1129 31.8422 37.2636C31.7319 37.3142 31.6037 37.2775 31.531 37.1764C31.282 37.3233 30.8566 37.5229 30.4098 37.4948C30.3384 37.4903 30.2717 37.4554 30.2252 37.3973C30.2105 37.379 30.198 37.3587 30.1885 37.3373C29.9322 37.4285 29.6461 37.5107 29.4442 37.5107ZM30.4516 36.6609C30.5077 36.6609 30.5635 36.6803 30.6098 36.7176C30.6697 36.7661 30.7064 36.8394 30.7122 36.9181C31.105 36.8384 31.444 36.5812 31.4482 36.5781C31.5049 36.534 31.5764 36.5157 31.6449 36.5279C31.7145 36.5398 31.776 36.5812 31.8165 36.6423L31.8232 36.6525C32.165 36.441 32.3484 36.1689 32.3503 36.1658C32.3959 36.0972 32.4686 36.0535 32.5471 36.0481C32.63 36.0437 32.7033 36.0749 32.7566 36.1366L32.776 36.159C32.8854 36.0565 32.9642 35.9204 32.9913 35.8611C33.0257 35.7857 33.0904 35.7304 33.167 35.7114C33.2228 35.6972 33.2796 35.7029 33.3312 35.727C33.9671 35.108 34.0197 34.0591 34.0114 33.621C33.9011 33.5843 33.7742 33.5277 33.6198 33.4588C33.1893 33.2667 32.5388 32.9762 31.7304 32.9239C30.2705 32.8211 27.8489 33.9111 26.9821 36.5065L27.8179 36.2265C27.891 36.2017 27.9713 36.2126 28.0364 36.2567C28.1014 36.3005 28.1448 36.3728 28.1553 36.4539L28.1601 36.4919C28.2577 36.4763 28.3779 36.4502 28.486 36.4189C28.5734 36.3925 28.6681 36.4186 28.7341 36.4851C28.8001 36.5513 28.8288 36.6494 28.8103 36.7441C29.0323 36.7413 29.2836 36.6877 29.3802 36.6613C29.4682 36.6358 29.5616 36.6629 29.6273 36.7308C29.6739 36.7787 29.7013 36.8425 29.7061 36.9093C29.8866 36.8591 30.1289 36.7753 30.356 36.6802C30.3869 36.6674 30.4194 36.6609 30.4516 36.6609Z" fill="black"/>
<path d="M34.3127 30L33.6279 31.0827L34.3978 31.9367L35.332 31.5897L34.3127 30Z" fill="black"/>
<path d="M33.3471 45.8456C33.2645 45.8456 33.1832 45.8035 33.1325 45.7261C33.0499 45.6006 33.0789 45.4268 33.1972 45.3393C33.4692 45.1377 33.7202 44.8805 33.9431 44.575C34.4329 43.9031 34.6613 43.1878 34.6039 42.5047C34.5911 42.3516 34.697 42.2166 34.8408 42.203C34.9821 42.1915 35.1116 42.3017 35.1243 42.4551C35.1938 43.2801 34.9282 44.1312 34.3558 44.9158C34.1003 45.266 33.8111 45.5619 33.4964 45.7953C33.4507 45.8293 33.3984 45.8456 33.3471 45.8456Z" fill="black"/>
<path d="M32.5225 46.2777C32.4109 46.2777 32.3079 46.201 32.2732 46.0815C32.2301 45.9349 32.3073 45.7795 32.4451 45.734C32.5091 45.713 32.572 45.6893 32.6335 45.6635C32.7671 45.6078 32.9192 45.6791 32.9719 45.8223C33.0238 45.9648 32.9572 46.1263 32.8229 46.182C32.7499 46.2119 32.6756 46.2397 32.6 46.2648C32.5742 46.2736 32.548 46.2777 32.5225 46.2777Z" fill="black"/>
<path d="M41.9756 46.299C41.9048 46.299 41.834 46.2685 41.7823 46.2081C41.6854 46.0947 41.693 45.9189 41.7995 45.8151C42.0451 45.5775 42.2626 45.2877 42.4463 44.9545C42.8506 44.2208 42.9903 43.4796 42.8506 42.8111C42.8194 42.6611 42.9083 42.5128 43.049 42.4792C43.1896 42.4463 43.3296 42.5403 43.3609 42.6903C43.5296 43.4987 43.3691 44.3789 42.8972 45.2354C42.6867 45.6175 42.4357 45.9508 42.1516 46.2263C42.1015 46.2746 42.0384 46.299 41.9756 46.299Z" fill="black"/>
<path d="M41.211 46.8398C41.1119 46.8398 41.0168 46.7787 40.9731 46.6762C40.9135 46.5364 40.9716 46.3721 41.1029 46.3083C41.1629 46.2791 41.2215 46.2472 41.2793 46.214C41.4052 46.1386 41.565 46.1882 41.6342 46.3226C41.7041 46.457 41.6581 46.626 41.5319 46.6999C41.4627 46.7413 41.3912 46.78 41.3192 46.8146C41.2841 46.8316 41.2474 46.8398 41.211 46.8398Z" fill="black"/>
<path d="M32.1915 35.8692C32.1366 35.8692 32.0811 35.8509 32.0339 35.8129C31.9191 35.7202 31.8965 35.5458 31.9836 35.4233L32.7084 34.4056L31.7715 33.7622C31.6504 33.6791 31.6153 33.507 31.6937 33.3781C31.7715 33.2495 31.9335 33.2122 32.0547 33.2953L33.2285 34.1012C33.2897 34.143 33.3315 34.2102 33.3442 34.2865C33.3567 34.3625 33.3391 34.4409 33.2951 34.5027L32.4 35.7593C32.3487 35.8312 32.2705 35.8692 32.1915 35.8692Z" fill="black"/>
<path d="M30.6216 36.1631C30.5668 36.1631 30.5113 36.1447 30.4641 36.1067C30.3493 36.0141 30.3267 35.8396 30.4137 35.7172L31.1383 34.6995L30.2017 34.0564C30.0805 33.9733 30.0455 33.8012 30.1239 33.6723C30.2017 33.5433 30.364 33.506 30.4849 33.5895L31.6584 34.3951C31.7196 34.4368 31.7614 34.504 31.7741 34.5804C31.7866 34.6564 31.769 34.7348 31.725 34.7965L30.8302 36.0532C30.7789 36.125 30.7007 36.1631 30.6216 36.1631Z" fill="black"/>
<path d="M33.3659 40.8489C33.2577 41.0793 32.8342 40.9612 32.3616 40.7098C31.8888 40.4584 31.5933 40.0679 31.7015 39.8374C31.8097 39.607 32.2388 39.713 32.7115 39.9644C33.1842 40.2157 33.4741 40.6184 33.3659 40.8489Z" fill="black"/>
<path d="M40.8664 40.3864C40.9215 40.6373 40.5249 40.8343 40.0103 40.9623C39.4957 41.0904 39.0339 40.9908 38.9788 40.7399C38.9236 40.4891 39.3174 40.2789 39.832 40.1509C40.3466 40.0228 40.8113 40.1355 40.8664 40.3864Z" fill="black"/>
</svg>
