<svg width="74" height="81" viewBox="0 0 74 81" fill="none" xmlns="http://www.w3.org/2000/svg">
<mask id="mask0_1268_6775" style="mask-type:luminance" maskUnits="userSpaceOnUse" x="0" y="3" width="74" height="75">
<path d="M0 3.01074H73.4193V77.4058H0V3.01074Z" fill="white"/>
</mask>
<g mask="url(#mask0_1268_6775)">
<path d="M73.4951 40.1197C73.4951 60.4052 57.0396 76.8497 36.7476 76.8497C16.4523 76.8497 0 60.4052 0 40.1197C0 19.8341 16.4523 3.38965 36.7476 3.38965C57.0396 3.38965 73.4951 19.8341 73.4951 40.1197Z" fill="#EEEEEE"/>
</g>
<path d="M23.4559 15.2314L19.7236 18.9777C19.7236 18.9777 20.9972 23.6906 22.4257 27.7875L25.9778 21.8206L23.4559 15.2314Z" fill="#111111"/>
<path d="M54.385 28.2483C54.0847 27.8503 53.6423 27.6387 53.1051 27.6387C52.3656 27.6387 51.6671 28.0462 51.6387 28.0619L51.5123 28.1346L50.4125 31.3692L50.4093 31.4229C50.1281 36.3758 51.2215 37.6488 51.3479 37.7783L51.389 37.8193L51.4428 37.8478C51.5976 37.9331 51.7588 37.9773 51.9168 37.9773C52.7511 37.9773 53.3263 36.9475 54.189 33.9025C55.0107 31.0091 55.0739 29.1612 54.385 28.2483Z" fill="#111111"/>
<path d="M51.8825 37.1882C51.892 37.1913 51.9047 37.1945 51.9173 37.1945C52.1132 37.1945 52.5715 36.7365 53.4374 33.6883C54.4044 30.2737 54.0536 29.1112 53.7597 28.7227C53.608 28.5205 53.3995 28.4258 53.1056 28.4258C52.7326 28.4258 52.3502 28.5837 52.1606 28.6753L51.1904 31.5214C50.9661 35.5551 51.7056 36.9228 51.8825 37.1882Z" fill="#EEEEEE"/>
<path d="M24.0976 30.9176L24.0913 30.8671L22.8904 27.6452L22.7672 27.5757C22.7387 27.5599 22.0371 27.165 21.3039 27.165C20.7635 27.165 20.3243 27.3767 20.0304 27.7778C19.3604 28.6939 19.4773 30.5449 20.3938 33.4383C21.3482 36.4644 21.9486 37.4847 22.7766 37.4847C22.7766 37.4847 22.7766 37.4847 22.7798 37.4847C22.941 37.4847 23.1021 37.4405 23.257 37.352L23.3107 37.3236L23.3518 37.2794C23.4751 37.1499 24.5337 35.8643 24.0976 30.9176Z" fill="#111111"/>
<path d="M21.3032 27.9482C21.0125 27.9482 20.8071 28.043 20.6617 28.242C20.3773 28.6305 20.0612 29.7898 21.1389 33.2013C22.0996 36.2463 22.5768 36.7012 22.7791 36.7012C22.7886 36.7012 22.798 36.698 22.8107 36.6948C22.9687 36.4421 23.6703 35.0744 23.3195 31.0407L22.2576 28.1978C22.068 28.1062 21.6793 27.9482 21.3032 27.9482Z" fill="#EEEEEE"/>
<mask id="mask1_1268_6775" style="mask-type:luminance" maskUnits="userSpaceOnUse" x="9" y="42" width="59" height="39">
<path d="M9.76855 42.6338H67.2095V80.0556H9.76855V42.6338Z" fill="white"/>
</mask>
<g mask="url(#mask1_1268_6775)">
<path d="M66.5993 67.5971C66.4066 64.1856 61.7705 62.2082 56.8626 60.114C54.1479 58.9547 51.3384 57.7575 49.3822 56.3171C46.3737 54.0997 46.9773 43.9696 46.9836 43.8685L47.0152 43.3631L36.1376 45.4637L29.6369 42.9619L29.7127 43.6031C29.7191 43.6758 30.5312 50.9378 28.6035 55.3379C27.8197 57.1353 25.0419 58.3135 21.8247 59.6781C17.2866 61.6017 12.1385 63.7844 10.1223 68.6047L10.0527 68.7721L10.1317 68.9332C10.2107 69.0912 12.1796 72.8848 20.1656 76.7827C24.2866 78.7917 30.3606 79.8594 39.282 80.1373C39.4211 80.1405 39.5633 80.1437 39.715 80.1437C46.3989 80.1437 64.0869 75.794 66.5835 67.7361L66.6057 67.6697L66.5993 67.5971Z" fill="#111111"/>
</g>
<path d="M10.9219 68.7316C11.3706 69.4613 13.6776 72.7432 20.5101 76.0789C24.53 78.0373 30.5029 79.0797 39.3074 79.3545C39.4369 79.3577 39.5728 79.3608 39.715 79.3608C46.5507 79.3608 63.4455 74.9101 65.8125 67.5723C65.5818 64.6884 61.1954 62.8153 56.5561 60.8347C53.7972 59.6597 50.9466 58.4435 48.9177 56.9494C45.9471 54.7604 46.0861 46.4845 46.1746 44.3239L36.0649 46.276L30.5503 44.1533C30.6103 44.8988 30.6925 46.2349 30.6704 47.8301C30.623 51.0868 30.1679 53.718 29.3241 55.6544C28.4108 57.736 25.5002 58.9679 22.1313 60.3988C17.786 62.2435 12.8718 64.3283 10.9219 68.7316Z" fill="#EEEEEE"/>
<path d="M53.1276 23.5801C52.9917 18.4377 52.7673 15.1589 50.8395 12.973C48.8328 10.7019 45.1226 9.77637 38.031 9.77637C37.4179 9.77637 36.7637 9.78268 36.0874 9.79532C22.7037 10.0796 22.0495 15.0799 21.9231 25.4501C21.8283 32.9869 24.7768 41.0955 29.2613 45.6283C31.7863 48.1869 34.6179 49.444 37.677 49.4472C37.8572 49.4567 38.0342 49.4219 38.2143 49.4219C41.0206 49.4219 43.7606 48.0984 46.1371 45.5146C50.7542 40.4953 53.7565 31.0885 53.1276 23.5801Z" fill="#111111"/>
<path d="M37.6898 48.7016H37.712C37.8795 48.7142 38.047 48.7174 38.2145 48.7174C40.8343 48.7174 43.3056 47.476 45.5589 45.0248C50.0465 40.1445 52.9634 30.9494 52.3472 23.6337L52.344 23.6116C52.2144 18.6397 52.0059 15.4809 50.2519 13.4909C48.4379 11.4345 44.7815 10.5596 38.0312 10.5596C37.4244 10.5596 36.7734 10.5659 36.1034 10.5785C29.9156 10.7112 26.3729 11.8862 24.6127 14.388C22.9377 16.7728 22.7702 20.3201 22.707 25.4594C22.6185 32.6835 25.5418 40.751 29.8176 45.0785C32.1941 47.4823 34.8425 48.7016 37.6867 48.7016C37.6899 48.7016 37.6898 48.7016 37.6898 48.7016Z" fill="#EEEEEE"/>
<path d="M45.48 25.551C45.6917 26.4481 45.145 27.3988 44.6267 27.5347C44.1052 27.6705 43.3626 27.2346 43.1508 26.3407C42.9423 25.4436 43.5079 24.4802 44.0294 24.3443C44.5508 24.2117 45.2714 24.657 45.48 25.551Z" fill="#111111"/>
<path d="M31.9126 25.7533C31.6724 26.6599 30.8381 27.3232 30.2977 27.2664C29.7573 27.2064 29.1979 26.4862 29.4381 25.5796C29.6783 24.673 30.3104 23.9876 30.8508 24.0476C31.3912 24.1076 32.1528 24.8468 31.9126 25.7533Z" fill="#111111"/>
<path d="M41.0808 23.77C41.0208 23.77 40.9608 23.7574 40.9039 23.729C40.7111 23.6311 40.6352 23.3973 40.7332 23.2015C40.7933 23.0814 42.2975 20.2512 47.9607 22.0675C48.1662 22.1338 48.2799 22.3549 48.2136 22.5634C48.1472 22.7687 47.926 22.8824 47.7206 22.8161C42.6894 21.1988 41.4443 23.5331 41.4316 23.5552C41.3621 23.6911 41.2231 23.77 41.0808 23.77Z" fill="#111111"/>
<path d="M35.0193 24.035C34.855 24.035 34.7033 23.9308 34.6496 23.7666C34.6306 23.7192 33.6667 21.3627 27.4852 22.3799C27.2703 22.4146 27.0712 22.2693 27.0365 22.0577C27.0017 21.8429 27.1439 21.6407 27.3588 21.606C34.3177 20.4625 35.3511 23.3938 35.3922 23.5202C35.4586 23.7255 35.3448 23.9466 35.1394 24.0129C35.0983 24.0287 35.0604 24.035 35.0193 24.035Z" fill="#111111"/>
<path d="M37.7779 34.7623C37.5852 34.7623 37.4177 34.6233 37.3892 34.4274C37.3608 34.2126 37.5093 34.0136 37.7211 33.9821C38.3057 33.8999 38.7102 33.7072 38.9283 33.4103C39.1558 33.0944 39.1021 32.7533 39.0989 32.7375C39.0958 32.7312 39.0958 32.7186 39.0926 32.7091L37.9581 22.3831C37.9328 22.1683 38.0877 21.9756 38.3025 21.9503C38.5174 21.9282 38.7134 22.083 38.7355 22.2978L39.8732 32.6112C39.8922 32.7407 39.9617 33.3061 39.573 33.8525C39.2317 34.339 38.6439 34.6422 37.8348 34.7591C37.8159 34.7623 37.7969 34.7623 37.7779 34.7623Z" fill="#111111"/>
<path d="M38.2521 40.5423C38.1668 40.5423 38.0783 40.5139 38.0088 40.4539L36.7099 39.4178C34.7884 39.6073 32.5541 39.9642 32.532 39.9674C32.3203 40.0021 32.118 39.8568 32.0833 39.6421C32.0485 39.4304 32.1939 39.2283 32.4088 39.1935C32.434 39.1903 34.8137 38.8113 36.7921 38.6218C36.8963 38.6123 36.9975 38.6439 37.0765 38.7071L38.2616 39.6547L39.532 38.7007C39.6142 38.6376 39.7185 38.6123 39.8196 38.6249L44.0859 39.1935C44.3008 39.2219 44.4494 39.4178 44.4209 39.6326C44.3925 39.8474 44.1966 39.999 43.9817 39.9706L39.8765 39.4241L38.4891 40.4633C38.4164 40.5139 38.3343 40.5423 38.2521 40.5423Z" fill="#111111"/>
<path d="M38.5117 42.2608C38.2557 42.2608 38.0471 42.2513 37.9207 42.2482C37.5288 42.264 34.8805 42.3398 34.0399 41.0763C33.9198 40.8962 33.9704 40.653 34.1505 40.533C34.3306 40.4129 34.574 40.4635 34.6941 40.6435C35.2124 41.4206 37.2318 41.4964 37.9017 41.4648C37.9144 41.4617 37.927 41.4617 37.9397 41.4617C39.6178 41.5438 41.5171 41.2437 41.5582 40.6909C41.574 40.473 41.7636 40.3087 41.9753 40.3277C42.1934 40.3435 42.3546 40.5298 42.3388 40.7446C42.244 42.0871 39.7758 42.2608 38.5117 42.2608Z" fill="#111111"/>
<mask id="mask2_1268_6775" style="mask-type:luminance" maskUnits="userSpaceOnUse" x="17" y="0" width="35" height="20">
<path d="M17.0498 0H51.838V19.9918H17.0498V0Z" fill="white"/>
</mask>
<g mask="url(#mask2_1268_6775)">
<path d="M26.8495 15.7843C24.7416 18.2387 20.5954 20.6678 17.2139 18.9336C17.8902 18.305 19.5809 17.3606 19.7484 16.255C19.7484 14.9947 18.5665 14.8399 17.8902 13.8922C18.5665 12.7898 19.3913 12.2023 20.5764 11.7317C20.0676 10.942 19.1005 11.3968 19.4387 10.4524C19.6062 9.66583 20.1561 8.0675 21.003 7.75162C21.6793 7.4389 20.096 5.80898 20.4342 5.33833C20.9398 4.23276 27.5416 3.34831 24.4825 2.70392C28.2021 0.025298 35.6414 0.341174 40.0373 1.1277C43.2481 1.60152 49.2937 3.20617 51.2815 4.76975C48.4088 7.44838 52.375 9.52684 46.8761 11.4474C35.0757 15.5664 34.0802 14.5714 31.6626 14.006C31.6658 14.006 29.1059 13.1531 26.8495 15.7843Z" fill="#111111"/>
</g>
<path d="M44.3232 9.71654C44.3232 9.71654 50.6375 14.2304 51.4244 17.6987C52.2144 21.167 52.5273 28.7828 52.5273 28.7828L54.553 22.3895C54.553 22.3895 58.1083 15.2823 55.2009 13.8135L58.7688 14.7579C58.7688 14.7579 57.8776 10.819 55.558 9.55861L51.2821 8.7468L53.6587 7.338C53.6587 7.338 50.9819 5.28796 47.7711 5.91972L44.6804 7.98239L44.3232 9.71654Z" fill="#111111"/>
<path d="M49.5276 54.0405L49.2779 54.2489C45.7922 57.1961 42.2274 58.6902 38.6816 58.6902C32.4148 58.6902 28.259 53.9615 28.2179 53.9141L27.962 53.6172L23.0225 57.9068L23.2532 58.2005C26.3028 62.0921 31.8428 64.417 38.0748 64.417C38.2297 64.417 38.3877 64.417 38.5425 64.4138C48.2635 64.2211 53.756 58.4722 53.9867 58.2258L54.2712 57.9194L49.5276 54.0405Z" fill="#111111"/>
<path d="M24.1035 58.0041C27.052 61.5356 32.238 63.633 38.075 63.633C38.2267 63.633 38.3784 63.633 38.5301 63.6298C46.6646 63.4687 51.8475 59.1602 53.1116 57.9851L49.5342 55.057C45.982 57.9883 42.3319 59.4729 38.6818 59.4729C32.8985 59.4729 28.9356 55.7961 27.8927 54.7158L24.1035 58.0041Z" fill="#EEEEEE"/>
<path d="M49.2119 61.5011L49.6575 60.8535L64.1568 70.8036L63.7112 71.448L49.2119 61.5011Z" fill="#111111"/>
<path d="M24.1447 63.2094C25.6806 61.968 26.793 61.1404 26.8278 61.1152L26.3601 60.4834C25.9398 60.7961 16.0197 68.1781 14.291 72.3982L14.9452 73.1753C15.0811 72.8373 15.6784 71.4601 16.6581 70.2376C17.6377 69.012 24.1447 63.2094 24.1447 63.2094Z" fill="#111111"/>
<path d="M46.1525 34.544C46.124 34.1902 46.3895 33.8807 46.7466 33.8523C47.1006 33.827 47.4103 34.0923 47.4355 34.4461C47.464 34.7999 47.1985 35.1094 46.8446 35.1379C46.4875 35.1631 46.1778 34.8978 46.1525 34.544Z" fill="#EEEEEE"/>
<path d="M46.8422 32.09C46.8169 31.7362 47.0002 31.4329 47.2562 31.4108C47.5121 31.395 47.7397 31.6635 47.765 32.0205C47.7934 32.3742 47.6101 32.6775 47.3541 32.6964C47.0982 32.7154 46.8706 32.4437 46.8422 32.09Z" fill="#EEEEEE"/>
<path d="M43.9692 32.2544C43.9281 31.7364 44.2663 31.2879 44.7213 31.2531C45.1733 31.2184 45.5746 31.6101 45.6157 32.1313C45.6536 32.6493 45.3186 33.0978 44.8636 33.1326C44.4085 33.1673 44.0103 32.7756 43.9692 32.2544Z" fill="#EEEEEE"/>
<path d="M29.1759 31.4835C29.1475 31.1297 29.4129 30.8201 29.77 30.7917C30.124 30.7664 30.4337 31.0318 30.459 31.3856C30.4874 31.7393 30.222 32.0489 29.868 32.0773C29.5109 32.1026 29.2012 31.8373 29.1759 31.4835Z" fill="#EEEEEE"/>
<path d="M30.3859 34.0862C30.3859 34.4526 30.0888 34.7495 29.7222 34.7495C29.3557 34.7495 29.0586 34.4526 29.0586 34.0862C29.0586 33.7198 29.3557 33.4229 29.7222 33.4229C30.0888 33.4229 30.3859 33.7198 30.3859 34.0862Z" fill="#EEEEEE"/>
<path d="M28.3005 32.5697C28.3005 32.696 28.2783 32.8161 28.2309 32.933C28.1804 33.0498 28.114 33.1509 28.0224 33.2425C27.9339 33.331 27.8327 33.3973 27.7158 33.4478C27.5989 33.4952 27.4788 33.5173 27.3524 33.5173C27.2291 33.5173 27.1059 33.4952 26.9921 33.4478C26.8752 33.3973 26.7709 33.331 26.6824 33.2425C26.5939 33.1509 26.5244 33.0498 26.477 32.933C26.4296 32.8161 26.4043 32.696 26.4043 32.5697C26.4043 32.4465 26.4296 32.3233 26.477 32.2096C26.5244 32.0927 26.5939 31.9885 26.6824 31.9C26.7709 31.8116 26.8752 31.7421 26.9921 31.6947C27.1059 31.6473 27.2291 31.6221 27.3524 31.6221C27.4788 31.6221 27.5989 31.6473 27.7158 31.6947C27.8327 31.7421 27.9339 31.8116 28.0224 31.9C28.114 31.9885 28.1804 32.0927 28.2309 32.2096C28.2783 32.3233 28.3005 32.4465 28.3005 32.5697Z" fill="#EEEEEE"/>
</svg>
