<svg width="52" height="76" viewBox="0 0 52 76" fill="none" xmlns="http://www.w3.org/2000/svg">
<path d="M44.1075 62.692L48.6375 21.083H3.29053L7.82049 62.692C8.14886 65.7081 10.6959 67.9929 13.7298 67.9929H38.1982C41.2321 67.9927 43.7791 65.708 44.1075 62.692Z" fill="#5CE9FF"/>
<path d="M45.9607 21.083L41.4308 62.692C41.1024 65.7081 38.5554 67.9929 35.5215 67.9929H38.1963C41.2302 67.9929 43.7772 65.7081 44.1056 62.692L48.6356 21.083H45.9607Z" fill="#00E3F9"/>
<path d="M51.639 0.370341C51.4275 0.134669 51.126 0 50.8094 0H14.7122C14.0965 0 13.5976 0.498929 13.5976 1.11458C13.5976 1.73023 14.0965 2.22916 14.7122 2.22916H49.5668L47.6356 19.9681H39.9793C39.3636 19.9681 38.8647 20.4671 38.8647 21.0827C38.8647 21.6984 39.3636 22.1973 39.9793 22.1973H47.3928L42.9973 62.5717C42.7296 65.0266 40.6657 66.8777 38.1961 66.8777H13.7277C11.2581 66.8777 9.19415 65.0265 8.92644 62.5717L4.53085 22.197H35.5211C36.1368 22.197 36.6357 21.6981 36.6357 21.0824C36.6357 20.4668 36.1368 19.9678 35.5211 19.9678H4.28821L2.35701 2.22902H10.2542C10.8698 2.22902 11.3687 1.73009 11.3687 1.11443C11.3687 0.498781 10.8697 0 10.254 0H1.11443C0.460958 0 -0.0642226 0.585545 0.00637496 1.23516L8.03107 74.9431C8.09262 75.5086 8.57019 75.9371 9.13912 75.9371H17.6297C18.2453 75.9371 18.7443 75.4381 18.7443 74.8225C18.7443 74.2068 18.2453 73.7079 17.6297 73.7079H10.1389L9.4841 67.6927C10.6691 68.5836 12.141 69.1069 13.7278 69.1069H38.1963C39.7831 69.1069 41.2551 68.5836 42.44 67.6927L41.7852 73.7079H22.0877C21.4721 73.7079 20.9731 74.2068 20.9731 74.8225C20.9731 75.4381 21.4721 75.9371 22.0877 75.9371H42.7847C43.3536 75.9371 43.8312 75.5087 43.8927 74.9431L51.9173 1.23516C51.9515 0.920438 51.8504 0.606012 51.639 0.370341Z" fill="black"/>
</svg>
